<?xml version="1.0" encoding="UTF-8" standalone="no"?>
<!-- Created with Inkscape (http://www.inkscape.org/) -->

<svg
   width="3.2042456mm"
   height="3.1832359mm"
   viewBox="0 0 3.2042456 3.1832359"
   version="1.1"
   id="svg1"
   xml:space="preserve"
   xmlns:inkscape="http://www.inkscape.org/namespaces/inkscape"
   xmlns:sodipodi="http://sodipodi.sourceforge.net/DTD/sodipodi-0.dtd"
   xmlns="http://www.w3.org/2000/svg"
   xmlns:svg="http://www.w3.org/2000/svg"><sodipodi:namedview
     id="namedview1"
     pagecolor="#505050"
     bordercolor="#eeeeee"
     borderopacity="1"
     inkscape:showpageshadow="0"
     inkscape:pageopacity="0"
     inkscape:pagecheckerboard="0"
     inkscape:deskcolor="#505050"
     inkscape:document-units="mm" /><defs
     id="defs1" /><g
     inkscape:groupmode="layer"
     id="layer2"
     inkscape:label="paths"
     inkscape:highlight-color="#ffffff"
     style="fill:#000000"
     transform="translate(-119.55997,-142.26382)"><path
       id="rect6-7-5"
       style="fill:none;fill-opacity:1;stroke:#f4f4f4;stroke-width:0.3;stroke-linecap:round;stroke-linejoin:round;stroke-dasharray:none;stroke-opacity:1;paint-order:normal"
       d="m 122.11399,142.91376 v 1.60817 c 0,0.15228 -0.11717,0.27492 -0.26251,0.27492 h -1.64125 v 0.22531 c 0,0.15228 0.11666,0.27491 0.262,0.27491 h 1.87947 c 0.14535,0 0.26252,-0.12263 0.26252,-0.27491 v -1.83348 c 0,-0.15229 -0.11717,-0.27492 -0.26252,-0.27492 z" /><rect
       style="opacity:1;fill:none;fill-opacity:1;stroke:#f4f4f4;stroke-width:0.3;stroke-linecap:round;stroke-linejoin:round;stroke-dasharray:none;stroke-opacity:1;paint-order:normal"
       id="rect6"
       width="2.4040644"
       height="2.3828781"
       x="119.70998"
       y="142.41383"
       rx="0.26235673"
       ry="0.27487615" /><path
       style="opacity:1;fill:none;fill-opacity:1;stroke:#f4f4f4;stroke-width:0.3;stroke-linecap:round;stroke-linejoin:round;stroke-dasharray:none;stroke-opacity:1;paint-order:normal"
       d="m 119.78503,144.70516 0.47195,-0.7059 c 0.0488,-0.0902 0.1293,-0.11127 0.18761,-0.0647 l 0.41409,0.23592 0.4224,-0.4825 c 0.0835,-0.1186 0.19295,-0.12831 0.26888,-0.0617 l 0.55156,0.47042"
       id="path6"
       sodipodi:nodetypes="ccccccc" /><circle
       style="opacity:1;fill:#f4f4f4;fill-opacity:1;stroke:#f4f4f4;stroke-width:0.109;stroke-linecap:round;stroke-linejoin:round;stroke-dasharray:none;stroke-opacity:1;paint-order:normal"
       id="path7"
       cx="120.38857"
       cy="143.05318"
       r="0.1953125" /></g></svg>
